<?xml version="1.0" encoding="UTF-8" standalone="no"?>
<!-- Created with Inkscape (http://www.inkscape.org/) -->

<svg
   width="48"
   height="48"
   viewBox="0 0 12.7 12.7"
   version="1.1"
   id="svg1"
   inkscape:version="1.4.2 (ebf0e940d0, 2025-05-08)"
   sodipodi:docname="de.z_ray.Win2Go.svg"
   xmlns:inkscape="http://www.inkscape.org/namespaces/inkscape"
   xmlns:sodipodi="http://sodipodi.sourceforge.net/DTD/sodipodi-0.dtd"
   xmlns="http://www.w3.org/2000/svg"
   xmlns:svg="http://www.w3.org/2000/svg">
  <sodipodi:namedview
     id="namedview1"
     pagecolor="#505050"
     bordercolor="#eeeeee"
     borderopacity="1"
     inkscape:showpageshadow="0"
     inkscape:pageopacity="0"
     inkscape:pagecheckerboard="true"
     inkscape:deskcolor="#505050"
     inkscape:document-units="mm"
     inkscape:zoom="7.0127946"
     inkscape:cx="32.797196"
     inkscape:cy="30.373056"
     inkscape:window-width="1366"
     inkscape:window-height="696"
     inkscape:window-x="0"
     inkscape:window-y="0"
     inkscape:window-maximized="1"
     inkscape:current-layer="layer1" />
  <defs
     id="defs1" />
  <g
     inkscape:label="Ebene 1"
     inkscape:groupmode="layer"
     id="layer1">
    <path
       id="rect1"
       style="fill:#636363;stroke-width:0.401001"
       d="M 3.6284633,0 H 9.4037876 V 2.9162531 H 3.6284633 Z" />
    <path
       style="fill:#636363;fill-opacity:1;stroke-width:0.401001"
       d="M 2.1897537,2.9162533 H 10.842496"
       id="path2" />
    <path
       style="fill:#636363;fill-opacity:1;stroke-width:0.401001"
       d="M 10.842496,11.042231 6.6787538,12.7"
       id="path3" />
    <path
       style="fill:#151515;fill-opacity:1;stroke-width:0.264583"
       d="m 10.842496,2.9162533 h 0.589109 l -6.7e-5,8.1200827 C 10.220129,12.388906 9.4805113,12.771837 6.6787537,12.7 l 4.1637423,-1.657769 z"
       id="path23"
       sodipodi:nodetypes="cccccc" />
    <path
       style="fill:#636363;fill-opacity:1;stroke-width:0.401001"
       d="M 2.1897537,11.042231 V 2.9162533"
       id="path4" />
    <path
       style="fill:#000000;fill-opacity:1;stroke-width:0.401001"
       d="m 2.1897537,2.9162533 h 8.6527423 c 0,0 0,6.9736266 0,8.1259777 C 10.007022,12.255233 8.9868625,12.7 6.6787538,12.7 c -2.3081087,0 -3.4914942,-0.525635 -4.4890001,-1.657769 0,-0.990617 0,-8.1259777 0,-8.1259777 z"
       id="path5"
       sodipodi:nodetypes="ccczcc" />
    <path
       id="rect5"
       style="fill:#232323;stroke-width:0.401001"
       d="M 4.5146732,0.93388748 H 5.9702748 V 1.7223383 H 4.5146732 Z" />
    <path
       id="rect6-3"
       style="fill:#232323;stroke-width:0.401001"
       d="M 7.0993013,0.93388748 H 8.5549029 V 1.7223383 H 7.0993013 Z" />
    <path
       id="rect6"
       style="fill:#1febff;stroke-width:0.401001"
       d="M 3.9008517,4.8032408 H 6.2426639 V 6.9792423 H 3.9008517 Z" />
    <path
       id="rect7"
       style="fill:#1febff;stroke-width:0.401001"
       d="M 6.9285846,4.8032408 H 9.2703967 V 6.9792423 H 6.9285846 Z" />
    <path
       id="rect8"
       style="fill:#1febff;stroke-width:0.401001"
       d="M 6.9285846,7.4335871 H 9.2703967 V 9.6095886 H 6.9285846 Z" />
    <path
       id="rect9"
       style="fill:#1febff;stroke-width:0.401001"
       d="M 3.9008517,7.4335871 H 6.2426639 V 9.6095886 H 3.9008517 Z" />
    <path
       style="fill:#3d3d3d;fill-opacity:1;stroke-width:0.264583"
       d="M 9.4037874,0 H 9.9909822 V 2.9162531 H 9.4037874 Z"
       id="path22" />
  </g>
</svg>
